# xmcd CD database file
#
# Track frame offsets:
#	150
#	42457
#	62710
#	86350
#	111954
#	134466
#	160710
#	190811
#	214635
#	248793
#	273261
#	308392
#
# Disc length: 4791 seconds
#
# Revision: 0
# Processed by: cddbd v1.5.2PL0 Copyright (c) Steve Scherf et al.
# Submitted via: CDex 1.70beta2
#
DISCID=9d12b50c
DTITLE=Miles Davis - The Complete Live Recordings 1956-57 CD1
DYEAR=2009
DGENRE=Jazz
TTITLE0=18-02-56 Pasadena - Walkin'
TTITLE1=Max is Making Wax
TTITLE2=It Never Entered My Mind
TTITLE3=Woody'n'You
TTITLE4=Salt Peanuts
TTITLE5=14-07-56 St-Louis - Ah-Leu-Cha
TTITLE6=All Of You
TTITLE7=Woody'n'You
TTITLE8=Walkin'
TTITLE9=21-07-56 - Two Bass Hit
TTITLE10=Well, You Needn't
TTITLE11=All Of You
EXTD=YEAR: 2009
EXTT0=
EXTT1=
EXTT2=
EXTT3=
EXTT4=
EXTT5=
EXTT6=
EXTT7=
EXTT8=
EXTT9=
EXTT10=
EXTT11=
PLAYORDER=
